<svg width="143" height="143" viewBox="0 0 143 143" fill="none" xmlns="http://www.w3.org/2000/svg">
<path d="M82 100.747H41.375C37.231 100.747 33.2567 99.1009 30.3265 96.1706C27.3962 93.2404 25.75 89.2661 25.75 85.1221C25.75 80.9781 27.3962 77.0038 30.3265 74.0735C33.2567 71.1433 37.231 69.4971 41.375 69.4971H44.5" stroke="#374151" stroke-width="9" stroke-linecap="round" stroke-linejoin="round"/>
<path d="M100.75 82V122.625C100.75 126.769 99.1042 130.743 96.1739 133.674C93.2437 136.604 89.2694 138.25 85.1254 138.25C80.9814 138.25 77.0071 136.604 74.0768 133.674C71.1466 130.743 69.5004 126.769 69.5004 122.625V119.5" stroke="#374151" stroke-width="9" stroke-linecap="round" stroke-linejoin="round"/>
<path d="M82 63.25H122.625C126.769 63.25 130.743 64.8962 133.674 67.8265C136.604 70.7567 138.25 74.731 138.25 78.875C138.25 83.019 136.604 86.9933 133.674 89.9235C130.743 92.8538 126.769 94.5 122.625 94.5H119.5" stroke="#374151" stroke-width="9" stroke-linecap="round" stroke-linejoin="round"/>
<path d="M63.25 82V41.375C63.25 37.231 64.8962 33.2567 67.8265 30.3265C70.7567 27.3962 74.731 25.75 78.875 25.75C83.019 25.75 86.9933 27.3962 89.9235 30.3265C92.8538 33.2567 94.5 37.231 94.5 41.375V44.5" stroke="#374151" stroke-width="9" stroke-linecap="round" stroke-linejoin="round"/>
<path d="M9.37404 61.3828C7.38194 61.3579 5.60657 61.4519 3.85703 61.2813C0.986007 61 -0.0626123 59.3584 0.00286875 55.5831C0.0609716 52.2445 1.4204 50.3829 4.15169 50.2791C7.98372 50.1343 11.825 50.084 15.6584 50.1606C18.522 50.2182 20.5187 52.6955 20.4745 55.8178C20.4279 59.1587 18.4316 61.3496 15.3582 61.3892C13.4399 61.4141 11.5211 61.3869 9.37404 61.3828Z" fill="#14B8A6"/>
<path d="M51.6314 2.94303C53.3943 -0.122124 59.1659 -1.02779 61.4688 1.35212C62.1411 2.04659 62.6078 3.21787 62.6493 4.19271C62.795 7.55899 62.7392 10.9345 62.7079 14.3068C62.6765 17.6486 60.9417 19.4147 57.6437 19.5554C53.9117 19.7145 51.6738 18.0401 51.5406 14.6083C51.393 10.7869 51.5553 6.95398 51.6314 2.94257V2.94303Z" fill="#14B8A6"/>
<path d="M33.4168 25.0517C33.0834 27.6096 31.8554 29.4315 29.7572 30.5087C27.8689 31.4785 25.8851 31.5776 24.1747 30.0227C21.6744 27.7507 19.2304 25.416 16.7412 23.1315C15.5086 21.9999 15.3555 20.6308 16.3078 19.4254C17.6252 17.7579 19.0455 16.0715 20.7503 14.8532C21.5712 14.2671 23.6094 14.2076 24.2978 14.8145C27.393 17.5444 30.2156 20.5851 33.0917 23.5576C33.361 23.8366 33.3135 24.4222 33.4168 25.0517Z" fill="#14B8A6"/>
</svg>
